<?xml version="1.0" encoding="UTF-8" standalone="no"?>
<svg width="32px" height="32px" viewBox="0 0 32 32" version="1.1" xmlns="http://www.w3.org/2000/svg" xmlns:xlink="http://www.w3.org/1999/xlink">
    <!-- Generator: Sketch 48.1 (47250) - http://www.bohemiancoding.com/sketch -->
    <title>Page 1</title>
    <desc>Created with Sketch.</desc>
    <defs></defs>
    <g id="Con-form" stroke="none" stroke-width="1" fill="none" fill-rule="evenodd" transform="translate(-1273.000000, -1699.000000)">
        <path d="M1288.76361,1713.75502 C1288.89232,1713.88372 1289.10506,1713.88635 1289.23639,1713.75502 L1303.89258,1699.09883 C1304.02128,1698.97013 1304.23666,1698.97013 1304.36273,1699.0962 L1304.9038,1699.63727 C1305.0325,1699.76597 1305.0325,1699.9761 1304.90117,1700.10742 L1290.24498,1714.76361 C1290.11628,1714.89232 1290.11365,1715.10506 1290.24498,1715.23639 L1304.90117,1729.89258 C1305.02987,1730.02128 1305.02987,1730.23665 1304.9038,1730.36273 L1304.36273,1730.9038 C1304.23403,1731.0325 1304.0239,1731.0325 1303.89258,1730.90118 L1289.23639,1716.24499 C1289.10768,1716.11628 1288.89494,1716.11366 1288.76361,1716.24499 L1274.10742,1730.90118 C1273.97872,1731.02988 1273.76335,1731.02988 1273.63727,1730.9038 L1273.0962,1730.36273 C1272.9675,1730.23403 1272.9675,1730.0239 1273.09882,1729.89258 L1287.75501,1715.23639 C1287.88372,1715.10768 1287.88634,1714.89494 1287.75501,1714.76361 L1273.09882,1700.10742 C1272.97012,1699.97872 1272.97012,1699.76334 1273.0962,1699.63727 L1273.63727,1699.0962 C1273.76597,1698.9675 1273.9761,1698.9675 1274.10742,1699.09883 L1288.76361,1713.75502 Z" id="Page-1" fill="#FFFFFF"></path>
    </g>
</svg>