<?xml version="1.0" encoding="UTF-8" standalone="no"?>
<svg width="65px" height="65px" viewBox="0 0 65 65" version="1.1" xmlns="http://www.w3.org/2000/svg" xmlns:xlink="http://www.w3.org/1999/xlink">
    <!-- Generator: Sketch 48.1 (47250) - http://www.bohemiancoding.com/sketch -->
    <title>Page 1</title>
    <desc>Created with Sketch.</desc>
    <defs></defs>
    <g id="minisitio-" stroke="none" stroke-width="1" fill="none" fill-rule="evenodd" transform="translate(-1008.000000, -1613.000000)">
        <path d="M1040.5,1613 C1022.56108,1613 1008,1627.56542 1008,1645.5 C1008,1663.43458 1022.56108,1678 1040.5,1678 C1058.43892,1678 1073,1663.43458 1073,1645.5 C1073,1627.56542 1058.43892,1613 1040.5,1613 Z M1040.5,1615 C1057.35887,1615 1071,1628.64113 1071,1645.5 C1071,1662.35887 1057.35887,1676 1040.5,1676 C1023.64112,1676 1010,1662.35887 1010,1645.5 C1010,1628.64113 1023.64112,1615 1040.5,1615 Z M1040.05076,1624 C1039.47202,1624 1039,1624.50194 1039,1625.11736 L1039,1645.22992 C1039,1645.53981 1039.10672,1645.83225 1039.29553,1646.03303 L1051.18171,1658.67265 C1051.59215,1659.10912 1052.28175,1659.10912 1052.69217,1658.67265 C1053.1026,1658.23619 1053.10262,1657.50288 1052.69217,1657.06644 L1041.10125,1644.74079 L1041.10125,1625.11764 C1041.10125,1624.50222 1040.62923,1624.00028 1040.0505,1624.00028 L1040.05076,1624 Z" id="Page-1" fill="#AD6CFF"></path>
    </g>
</svg>