<?xml version="1.0" encoding="UTF-8" standalone="no"?>
<svg width="87px" height="58px" viewBox="0 0 87 58" version="1.1" xmlns="http://www.w3.org/2000/svg" xmlns:xlink="http://www.w3.org/1999/xlink">
    <!-- Generator: Sketch 48.1 (47250) - http://www.bohemiancoding.com/sketch -->
    <title>Page 1</title>
    <desc>Created with Sketch.</desc>
    <defs></defs>
    <g id="minisitio-" stroke="none" stroke-width="1" fill="none" fill-rule="evenodd" transform="translate(-783.000000, -1615.000000)">
        <path d="M853.602002,1638.301 C851.500402,1625.301 840.000002,1615.5 826.500002,1615.5 C813.000002,1615.5 801.500002,1625.3008 799.398002,1638.301 C790.296402,1638.90256 783,1646.5002 783,1655.602 C783,1665.1997 790.898402,1673 800.500002,1673 L852.500002,1673 C862.101602,1673 870.000002,1665.1992 870.000002,1655.602 C870.000002,1646.5004 862.699202,1638.899 853.602002,1638.301 Z M852.500402,1671 L800.500402,1671 C792.000402,1671 785.000399,1664.1016 785.000399,1655.602 C785.000399,1647.3012 791.801202,1640.403 800.301402,1640.301 C800.801402,1640.301 801.199842,1639.90256 801.301402,1639.40256 C802.899102,1626.89856 813.801402,1617.50056 826.500402,1617.50056 C839.199402,1617.50056 850.102402,1626.89896 851.801402,1639.39856 C851.902962,1639.89856 852.301402,1640.297 852.801402,1640.297 C861.199802,1640.39856 868.102402,1647.297 868.102402,1655.598 C868.000842,1664.1019 861.000802,1671 852.500402,1671 Z" id="Page-1" fill="#27E29F"></path>
    </g>
</svg>