<?xml version="1.0" encoding="UTF-8" standalone="no"?>
<svg width="77px" height="66px" viewBox="0 0 77 66" version="1.1" xmlns="http://www.w3.org/2000/svg" xmlns:xlink="http://www.w3.org/1999/xlink">
    <!-- Generator: Sketch 48.1 (47250) - http://www.bohemiancoding.com/sketch -->
    <title>Page 1</title>
    <desc>Created with Sketch.</desc>
    <defs></defs>
    <g id="minisitio-" stroke="none" stroke-width="1" fill="none" fill-rule="evenodd" transform="translate(-157.000000, -1613.000000)">
        <g id="Page-1" transform="translate(157.000000, 1613.000000)" fill="#5FA9F9">
            <path d="M24.74549,48.8254186 L3.69985,48.8254186 C2.860704,48.8254186 2.174865,48.1449126 2.174865,47.3055 L2.174865,41.7295744 L44.076725,41.7295744 L44.076725,39.5591721 L2.17794346,39.5621728 L2.17794346,4.25984721 C2.17794346,3.42348907 2.86071786,2.7399286 3.70292846,2.7399286 L60.88467,2.7399286 C61.723816,2.7399286 62.409655,3.42043465 62.409655,4.25984721 L62.409655,21.158917 L64.587292,21.158917 L64.5842813,4.25984721 C64.5842813,2.22735419 62.9240073,0.572519302 60.8846623,0.572519302 L3.69984538,0.569518605 C1.66057738,0.569518605 0.000226733122,2.22427674 0.000226733122,4.25983953 L0.000226733122,47.3087233 C0.000226733122,49.3412163 1.66050038,50.9960512 3.69984538,50.9960512 L23.6567023,50.9960512 L23.6567023,62.9336093 L16.9071903,62.9336093 L16.9071903,65.1040147 L40.4191403,65.1040147 C41.0207028,65.1040147 41.5079973,64.6183698 41.5079973,64.0187752 L41.5079973,50.9960512 L45.6016253,50.9960512 L45.6016253,48.8256488 L24.74549,48.8254186 Z M39.33006,62.9333023 L25.83427,62.9333023 L25.83427,50.9957442 L39.33006,50.9957442 L39.33006,62.9333023 Z" id="Fill-1"></path>
            <polygon id="Fill-2" points="28.66479 46.3643093 35.65793 46.3643093 35.65793 44.193907 28.66479 44.193907"></polygon>
            <path d="M8.13043,8.57386047 L12.193951,8.57386047 L12.193951,6.40345814 L7.041573,6.40345814 C6.4400105,6.40345814 5.952716,6.88910302 5.952716,7.48869767 L5.952716,15.9512791 L8.130353,15.9512791 L8.13043,8.57386047 Z" id="Fill-3"></path>
            <polygon id="Fill-4" points="5.952485 23.1098233 8.130122 23.1098233 8.130122 19.2036977 5.952485 19.2036977"></polygon>
            <path d="M73.65512,23.1698372 L51.36439,23.1698372 C49.520625,23.1698372 48.019664,24.6657349 48.019664,26.5034512 L48.019664,62.0904977 C48.019664,63.9281372 49.520548,65.4241116 51.36439,65.4241116 L73.65512,65.4241116 C75.498885,65.4241116 76.999846,63.928214 76.999846,62.0904977 L76.999846,26.5034512 C76.999846,24.6688047 75.498962,23.1698372 73.65512,23.1698372 Z M50.19399,35.1373256 L74.82475,35.1373256 L74.82475,54.1192326 L50.19399,54.1162395 L50.19399,35.1373256 Z M50.19399,26.5066744 C50.19399,25.8651391 50.7173513,25.3405465 51.364005,25.3405465 L73.654735,25.3405465 C74.2984088,25.3405465 74.82475,25.8621691 74.82475,26.5066744 L74.82475,32.967 L50.19399,32.967 L50.19399,26.5066744 Z M74.82167,62.0937209 C74.82167,62.7352563 74.2983087,63.2598488 73.651655,63.2598488 L51.360925,63.2598488 C50.7172512,63.2598488 50.19091,62.7382263 50.19091,62.0937209 L50.19091,56.2869488 L74.82167,56.2869488 L74.8246807,62.0937209 L74.82167,62.0937209 Z" id="Fill-5"></path>
            <polygon id="Fill-6" points="59.78049 60.8589837 65.236633 60.8589837 65.236633 58.6885814 59.78049 58.6885814"></polygon>
        </g>
    </g>
</svg>