<?xml version="1.0" encoding="UTF-8" standalone="no"?>
<svg width="68px" height="68px" viewBox="0 0 68 68" version="1.1" xmlns="http://www.w3.org/2000/svg" xmlns:xlink="http://www.w3.org/1999/xlink">
    <!-- Generator: Sketch 48.1 (47250) - http://www.bohemiancoding.com/sketch -->
    <title>Page 1</title>
    <desc>Created with Sketch.</desc>
    <defs></defs>
    <g id="minisitio-" stroke="none" stroke-width="1" fill="none" fill-rule="evenodd" transform="translate(-379.000000, -1611.000000)">
        <path d="M413.774292,1611.00465 C406.435379,1610.88698 399.171838,1613.00504 393.106393,1617.15945 C392.724944,1617.4255 392.638983,1617.932 392.912987,1618.30036 C393.192355,1618.66361 393.724244,1618.75059 394.11107,1618.48966 C401.793829,1613.23021 411.491801,1611.39852 420.699998,1613.47579 C420.925643,1613.53207 421.162044,1613.50137 421.366207,1613.38881 C421.564991,1613.27626 421.710053,1613.08695 421.763775,1612.87207 C421.817498,1612.65719 421.774517,1612.43207 421.650952,1612.24277 C421.52201,1612.0586 421.323226,1611.92556 421.09758,1611.88463 C418.674566,1611.3372 416.21923,1611.04558 413.77476,1611.00464 L413.774292,1611.00465 Z M425.689819,1613.29342 C425.284733,1613.28812 424.932252,1613.57956 424.858597,1613.98225 C424.779688,1614.38496 425.000642,1614.78235 425.384678,1614.93072 C438.615767,1620.35129 446.676008,1633.94293 445.128551,1648.24822 C445.102249,1648.47606 445.165372,1648.70391 445.307418,1648.87876 C445.444197,1649.05891 445.64938,1649.17548 445.875586,1649.19667 C446.101806,1649.22316 446.322759,1649.15428 446.501626,1649.01121 C446.67524,1648.86815 446.785717,1648.6562 446.801501,1648.42835 C448.427071,1633.37973 439.941246,1619.0636 426.015216,1613.36102 C425.915257,1613.31334 425.804781,1613.29213 425.689038,1613.29213 L425.689819,1613.29342 Z M413.030465,1615.58597 C412.394867,1615.58597 411.75927,1615.6227 411.123685,1615.67518 C410.896324,1615.68567 410.684454,1615.78537 410.5346,1615.95328 C410.384746,1616.12644 410.312398,1616.35207 410.327902,1616.57769 C410.343406,1616.80857 410.451921,1617.01844 410.627611,1617.16537 C410.8033,1617.30705 411.030675,1617.37526 411.252877,1617.34902 C416.048267,1616.96597 420.859135,1617.91047 425.173398,1620.07749 C425.369765,1620.17719 425.597126,1620.19817 425.803823,1620.12471 C426.015694,1620.05126 426.186211,1619.89908 426.284394,1619.69968 C426.382577,1619.50029 426.398081,1619.26942 426.325734,1619.05953 C426.253386,1618.84439 426.103532,1618.67124 425.907166,1618.57154 C421.897294,1616.55662 417.484212,1615.53869 413.029856,1615.58584 L413.030465,1615.58597 Z M404.905138,1617.11237 C404.832034,1617.11237 404.753718,1617.12316 404.680614,1617.14475 C392.185625,1620.603 383.491384,1632.30975 383.491384,1645.67927 C383.491384,1649.32633 383.783785,1650.93951 383.423507,1654.22512 C383.214648,1655.80585 382.546303,1657.2787 381.507226,1658.45489 C381.199159,1658.81096 381.225264,1659.35587 381.564663,1659.67418 C381.904063,1659.99249 382.431428,1659.97091 382.744708,1659.62023 C384.013522,1658.18508 384.828075,1656.37771 385.078705,1654.4517 L385.078705,1654.43011 C385.459875,1650.97186 385.162248,1649.23465 385.162248,1645.6793 C385.162248,1633.08709 393.339056,1622.06995 405.113702,1618.81182 C405.520979,1618.70393 405.787274,1618.29929 405.73505,1617.86768 C405.682825,1617.43607 405.327773,1617.11236 404.910057,1617.11236 L404.905138,1617.11237 Z M389.581091,1621.69663 C389.362411,1621.70201 389.149069,1621.79337 388.994398,1621.95462 C381.111472,1629.90375 377.575256,1641.23409 379.52735,1652.30066 C379.56468,1652.52639 379.68736,1652.73064 379.874035,1652.86501 C380.060711,1652.99938 380.29538,1653.04775 380.519399,1653.01013 C380.743405,1652.96713 380.946083,1652.83814 381.074088,1652.65002 C381.202093,1652.45654 381.2501,1652.22542 381.207431,1651.99431 C379.351324,1641.48141 382.711542,1630.72112 390.205059,1623.17004 C390.455731,1622.9228 390.530404,1622.54658 390.391735,1622.22409 C390.253066,1621.89623 389.933047,1621.68663 389.581036,1621.69737 L389.581091,1621.69663 Z M413.165227,1621.69714 L413.165227,1621.7024 C412.508193,1621.7024 411.851146,1621.72875 411.199476,1621.78668 C403.401271,1622.46096 396.19508,1626.78052 392.123778,1633.68135 C391.994525,1633.87625 391.956831,1634.1133 392.016074,1634.33456 C392.069926,1634.56108 392.215338,1634.75071 392.419992,1634.8666 C392.624646,1634.97724 392.866994,1635.00884 393.087807,1634.94563 C393.313996,1634.88241 393.502492,1634.72965 393.615587,1634.52421 C398.667283,1625.96398 408.8778,1621.68663 418.701039,1624.00966 C428.529656,1626.33281 435.606663,1634.69804 436.107131,1644.57512 C436.117899,1644.80164 436.214835,1645.01235 436.387186,1645.15984 C436.559524,1645.31261 436.780337,1645.39163 437.011903,1645.38109 C437.238093,1645.36528 437.453515,1645.26519 437.609694,1645.1019 C437.760496,1644.93333 437.841274,1644.71208 437.830506,1644.49084 C437.291958,1633.87623 429.665981,1624.86262 419.104999,1622.36644 C417.128494,1621.8976 415.135858,1621.68163 413.16473,1621.69744 L413.165227,1621.69714 Z M430.229139,1622.46113 C429.869678,1622.47661 429.567525,1622.71396 429.463326,1623.04934 C429.359128,1623.38472 429.484171,1623.75107 429.770694,1623.95746 C434.235379,1627.26485 437.548585,1631.86739 439.246998,1637.12522 C439.309519,1637.34709 439.455382,1637.53284 439.65335,1637.64119 C439.856519,1637.74954 440.090949,1637.77018 440.309763,1637.7031 C440.528562,1637.63086 440.705699,1637.48123 440.804669,1637.27484 C440.903654,1637.07361 440.914069,1636.83626 440.83593,1636.62471 C439.028158,1631.0418 435.511703,1626.15039 430.770951,1622.6364 C430.614659,1622.51773 430.421906,1622.45581 430.229152,1622.46097 L430.229139,1622.46113 Z M412.533079,1625.51721 C406.823302,1625.51721 401.417678,1628.10255 397.804622,1632.55928 C394.197338,1637.02143 392.760732,1642.87924 393.89842,1648.51496 C393.940365,1648.737 394.071448,1648.93262 394.254947,1649.0595 C394.443707,1649.18639 394.66915,1649.22868 394.889372,1649.18639 C395.109581,1649.1388 395.303576,1649.00664 395.424177,1648.82159 C395.550012,1648.63127 395.591957,1648.39865 395.544777,1648.18188 C394.506631,1643.03773 395.812179,1637.69801 399.104814,1633.63242 C402.397476,1629.56683 407.326067,1627.20887 412.532636,1627.20887 C412.758093,1627.20887 412.973054,1627.12428 413.1356,1626.96567 C413.292897,1626.80706 413.382022,1626.59031 413.382022,1626.36297 C413.382022,1626.13564 413.292884,1625.91888 413.1356,1625.76027 C412.973067,1625.60166 412.758093,1625.5118 412.532636,1625.51707 L412.533079,1625.51721 Z M418.072918,1626.28166 L418.072918,1626.28699 L417.988421,1626.28699 C417.581782,1626.31898 417.254354,1626.63887 417.206833,1627.04941 C417.164585,1627.45994 417.418075,1627.83848 417.808869,1627.95578 C425.065044,1630.28567 429.981672,1637.07824 429.981672,1644.76045 L429.981672,1644.77645 C430.076728,1649.33494 430.060897,1654.08548 429.606723,1658.19616 C429.559189,1658.66 429.891903,1659.07588 430.351349,1659.12919 C430.816081,1659.18252 431.228006,1658.85195 431.286099,1658.38809 C431.756118,1654.13874 431.766676,1649.34029 431.671621,1644.75504 C431.666348,1636.33633 426.263829,1628.87715 418.321136,1626.32888 C418.236639,1626.30222 418.157428,1626.28622 418.072932,1626.2809 L418.072918,1626.28166 Z M412.467672,1630.12422 C410.597488,1630.22476 408.732638,1630.66717 406.996097,1631.46652 C406.787712,1631.55701 406.627408,1631.72291 406.552598,1631.924 C406.477788,1632.12509 406.49382,1632.34628 406.59001,1632.54235 C406.691521,1632.73338 406.867857,1632.88419 407.081604,1632.94956 C407.300686,1633.01994 407.535786,1633.00987 407.738836,1632.91436 C411.831848,1631.04427 416.678296,1631.37103 420.44534,1633.77904 C420.632358,1633.89969 420.862123,1633.94494 421.08654,1633.90974 C421.310957,1633.86953 421.514007,1633.74384 421.642247,1633.56789 C421.770487,1633.38692 421.813234,1633.17075 421.770487,1632.95959 C421.72774,1632.74845 421.594152,1632.56245 421.401798,1632.4418 C419.264464,1631.07942 416.827835,1630.30518 414.337857,1630.13929 C413.718037,1630.09406 413.092855,1630.08902 412.467672,1630.12422 Z M403.342725,1634.68629 C403.127245,1634.69681 402.917026,1634.78623 402.764619,1634.94403 C400.105301,1637.61086 398.60222,1641.22444 398.607602,1644.9957 L398.607602,1650.5712 C398.607602,1657.7037 395.659291,1664.2992 390.745351,1669.12252 C390.571915,1669.27505 390.466813,1669.49071 390.461552,1669.72214 C390.451045,1669.95359 390.535132,1670.17975 390.698047,1670.34282 C390.860961,1670.50587 391.081701,1670.60056 391.312935,1670.5953 C391.544169,1670.59003 391.764909,1670.49011 391.922563,1670.32179 C397.141236,1665.19335 400.283957,1658.16614 400.289338,1650.5707 L400.289338,1644.99521 C400.289338,1641.67086 401.608463,1638.48346 403.957707,1636.13226 C404.204709,1635.8903 404.28355,1635.52212 404.146897,1635.20125 C404.010258,1634.8804 403.689676,1634.67526 403.342805,1634.68578 L403.342725,1634.68629 Z M412.594625,1635.44944 C412.491179,1635.44944 412.387719,1635.47106 412.289437,1635.51431 C409.987585,1635.59541 407.78412,1636.53608 406.14953,1638.25531 C404.437343,1640.04481 403.475313,1642.47759 403.480477,1645.01307 L403.449438,1648.78667 C403.449438,1649.01373 403.532201,1649.24079 403.687383,1649.40298 C403.837388,1649.57056 404.049472,1649.66789 404.271897,1649.66789 C404.494323,1649.66789 404.706393,1649.58139 404.861576,1649.4192 C405.016759,1649.25701 405.109863,1649.03536 405.104685,1648.80289 L405.135724,1645.02929 C405.135724,1642.9479 405.921967,1640.95841 407.323696,1639.48792 C408.720328,1638.01743 410.618697,1637.19575 412.594665,1637.19021 C416.768933,1637.19021 420.131204,1640.70971 420.131204,1645.07247 L420.131204,1647.57017 C420.131204,1652.13306 419.681188,1656.67422 418.781184,1661.13441 C418.734639,1661.36147 418.77602,1661.59935 418.894986,1661.79397 C419.013952,1661.98859 419.200173,1662.12375 419.417421,1662.17241 C419.634669,1662.22107 419.862272,1662.17241 420.048481,1662.04807 C420.229525,1661.91832 420.358846,1661.71829 420.400214,1661.49124 C421.320942,1656.91755 421.786517,1652.25197 421.786517,1647.56964 L421.786517,1645.07195 C421.786517,1639.88737 417.819088,1635.703 412.899959,1635.5246 C412.801677,1635.48676 412.698231,1635.46513 412.594771,1635.45974 L412.594625,1635.44944 Z M424.132647,1636.97753 C423.830302,1636.97753 423.548462,1637.15831 423.4101,1637.44315 C423.266608,1637.73348 423.287113,1638.07858 423.456225,1638.34701 C424.993595,1640.81753 425.695572,1643.77018 425.444482,1646.72283 C425.408602,1647.20489 425.741697,1647.62668 426.19265,1647.67051 C426.638472,1647.71433 427.038184,1647.35826 427.079179,1646.88169 C427.36102,1643.52923 426.56674,1640.18224 424.824352,1637.37753 C424.675744,1637.12555 424.414395,1636.97764 424.132555,1636.97764 L424.132647,1636.97753 Z M390.29893,1638.50708 C389.914639,1638.52792 389.585257,1638.78322 389.491925,1639.13751 C388.816675,1641.52898 388.542187,1644.00888 388.673943,1646.4837 C388.76178,1649.12005 388.608072,1650.06304 388.641001,1653.74134 L388.641001,1653.75697 C388.723357,1656.89349 386.961133,1659.82153 384.029621,1661.4002 C383.606907,1661.62423 383.45868,1662.13482 383.700225,1662.53079 C383.936289,1662.93196 384.468807,1663.07264 384.891521,1662.8486 C388.377602,1660.97824 390.496655,1657.47187 390.397856,1653.71527 C390.364927,1650.09433 390.518635,1649.1304 390.425317,1646.4159 L390.425317,1646.40026 C390.304538,1644.09736 390.562554,1641.79459 391.188404,1639.56984 C391.270746,1639.31454 391.210356,1639.03321 391.034682,1638.81959 C390.853513,1638.61119 390.579025,1638.49136 390.299042,1638.50698 L390.29893,1638.50708 Z M413.52004,1640.79775 C411.072656,1640.79775 409.068794,1642.82553 409.068794,1645.3074 L409.021824,1649.92803 C408.818311,1654.49053 407.993802,1659.00017 406.56402,1663.33043 C406.480526,1663.54694 406.485749,1663.78457 406.5849,1663.99579 C406.678828,1664.20702 406.85625,1664.36544 407.075432,1664.43938 C407.294601,1664.51331 407.529427,1664.49218 407.732953,1664.38657 C407.936465,1664.27567 408.082587,1664.08557 408.145201,1663.86379 C409.622047,1659.38578 410.47783,1654.72297 410.686499,1650.0073 L410.686499,1649.97033 L410.733456,1645.30752 C410.733456,1643.74451 411.970213,1642.49296 413.514817,1642.49296 C415.064737,1642.49296 416.301387,1643.74448 416.296177,1645.30752 C416.296177,1645.53459 416.379671,1645.75109 416.541437,1645.9148 C416.697992,1646.07322 416.911937,1646.16827 417.13112,1646.16827 C417.355512,1646.16827 417.569458,1646.07322 417.726013,1645.9148 C417.887778,1645.7511 417.971272,1645.53459 417.966062,1645.30752 C417.966062,1642.83093 415.96741,1640.80315 413.520027,1640.80315 L413.52004,1640.79775 Z M441.292738,1640.79876 L441.292738,1640.80393 C441.05435,1640.81949 440.831856,1640.92322 440.678229,1641.10472 C440.524601,1641.28623 440.455735,1641.5196 440.492813,1641.75297 C440.625256,1642.76943 440.704715,1643.79114 440.720609,1644.81275 L440.720609,1650.0092 C440.720609,1655.05522 440.021339,1660.08041 438.633323,1664.93964 C438.564457,1665.15228 438.590943,1665.38565 438.70219,1665.5827 C438.808147,1665.77459 438.99355,1665.9198 439.216057,1665.98203 C439.433262,1666.03908 439.666347,1666.01315 439.867658,1665.89905 C440.063665,1665.79015 440.206701,1665.60344 440.264976,1665.38563 C441.690042,1660.38116 442.41573,1655.20542 442.41573,1650.0091 L442.41573,1644.79712 L442.41573,1644.78156 C442.399836,1643.6925 442.315075,1642.60864 442.17204,1641.52995 C442.12437,1641.09433 441.737644,1640.77797 441.292643,1640.79872 L441.292738,1640.79876 Z M436.172328,1647.67416 C435.941819,1647.68469 435.727393,1647.77956 435.571936,1647.94295 C435.41648,1648.10632 435.330709,1648.32241 435.341427,1648.54377 C435.475448,1656.17519 434.269299,1663.77504 431.765838,1671.00142 C431.690786,1671.21224 431.706869,1671.4494 431.808723,1671.64968 C431.905211,1671.84996 432.087483,1672.00806 432.301909,1672.08185 C432.516334,1672.15036 432.757561,1672.13455 432.961269,1672.03441 C433.164977,1671.93427 433.320434,1671.76036 433.395486,1671.54427 C435.957889,1664.13412 437.196136,1656.34403 437.056845,1648.51859 C437.056845,1648.29196 436.960357,1648.07061 436.794169,1647.9125 C436.627981,1647.75438 436.402837,1647.67006 436.172342,1647.67533 L436.172328,1647.67416 Z M417.035864,1648.4382 C416.575984,1648.4543 416.205838,1648.80332 416.177784,1649.24363 C415.381397,1659.03757 412.111788,1668.51949 406.649254,1676.91272 C406.520268,1677.10602 406.475401,1677.34228 406.525867,1677.5678 C406.581961,1677.79331 406.72776,1677.98662 406.929667,1678.10474 C407.13156,1678.22823 407.378334,1678.26583 407.61388,1678.21212 C407.849426,1678.15843 408.051334,1678.01345 408.174706,1677.82014 C413.78871,1669.1968 417.142438,1659.45152 417.961237,1649.37853 C417.989277,1649.13153 417.899543,1648.88991 417.720077,1648.70735 C417.546224,1648.53015 417.293836,1648.4335 417.035864,1648.43888 L417.035864,1648.4382 Z M426.28729,1649.96629 C425.813285,1649.96629 425.429823,1650.34902 425.429823,1650.82879 C425.259396,1659.85807 423.272897,1668.75763 419.587307,1676.98376 C419.480796,1677.19399 419.464817,1677.43657 419.5447,1677.65759 C419.619265,1677.87861 419.784361,1678.06188 419.997395,1678.15891 C420.210429,1678.25594 420.450091,1678.26132 420.668456,1678.17507 C420.88149,1678.08344 421.051917,1677.91092 421.137131,1677.68992 C424.918433,1669.25362 426.958242,1660.12263 427.133986,1650.86151 C427.144635,1650.62971 427.054104,1650.40331 426.894325,1650.23081 C426.734546,1650.06371 426.516195,1649.97206 426.287181,1649.96666 L426.28729,1649.96629 Z M394.838914,1652.25923 C394.364294,1652.28017 393.982269,1652.62051 393.959124,1653.04985 C393.600259,1657.81459 391.088231,1662.23376 387.013414,1665.26535 C386.810829,1665.40148 386.677708,1665.6057 386.64877,1665.83607 C386.614037,1666.06122 386.689281,1666.29159 386.851355,1666.46963 C387.013429,1666.64242 387.244952,1666.75237 387.499621,1666.77331 C387.748511,1666.789 387.997401,1666.71047 388.188398,1666.55863 C392.656768,1663.23376 395.417716,1658.39048 395.80549,1653.16505 C395.82865,1652.92419 395.736041,1652.68857 395.550807,1652.51578 C395.365588,1652.34299 395.105126,1652.24875 394.83887,1652.25922 L394.838914,1652.25923 Z M404.017598,1652.25927 C403.587642,1652.28596 403.236879,1652.5903 403.174646,1652.99074 C402.003567,1659.99041 399.022089,1666.61093 394.484865,1672.2603 C394.332113,1672.44182 394.258568,1672.67141 394.286854,1672.901 C394.320802,1673.13058 394.445268,1673.33881 394.643265,1673.47764 C394.835613,1673.61645 395.084546,1673.67518 395.327817,1673.64314 C395.565424,1673.60578 395.786072,1673.47764 395.927499,1673.29076 C400.64576,1667.41764 403.751633,1660.53552 404.962409,1653.2585 C405.013331,1653.00222 404.934124,1652.7406 404.747424,1652.54305 C404.566387,1652.3455 404.294831,1652.24405 404.017613,1652.26007 L404.017598,1652.25927 Z M430.099444,1662.95523 C429.69912,1662.9606 429.356751,1663.25668 429.283005,1663.65504 C428.492902,1667.71393 427.286643,1671.67595 425.690632,1675.47107 C425.590551,1675.6864 425.58002,1675.92864 425.659025,1676.14935 C425.743302,1676.37007 425.906584,1676.54771 426.117278,1676.63923 C426.327971,1676.73074 426.565,1676.73074 426.780965,1676.63923 C426.991659,1676.54772 427.154941,1676.37544 427.239219,1676.15474 C428.882695,1672.24123 430.120426,1668.16609 430.936905,1663.99418 C430.989588,1663.73579 430.926374,1663.47201 430.763078,1663.26746 C430.599795,1663.0629 430.357495,1662.94985 430.09939,1662.95524 L430.099444,1662.95523 Z M419.358307,1665.24727 C418.976088,1665.2577 418.648482,1665.50808 418.544736,1665.85757 C417.283431,1669.98356 415.58528,1673.97403 413.483105,1677.77151 C413.373907,1677.96451 413.352059,1678.19403 413.42304,1678.40789 C413.48857,1678.62176 413.641449,1678.79911 413.848941,1678.90343 C414.050967,1679.00776 414.291224,1679.02862 414.515084,1678.96081 C414.738958,1678.89822 414.924602,1678.75216 415.0338,1678.55394 C417.19063,1674.65736 418.926997,1670.5574 420.220955,1666.32711 C420.302867,1666.07151 420.248254,1665.78984 420.078993,1665.57597 C419.909731,1665.3621 419.642175,1665.24213 419.358251,1665.24735 L419.358307,1665.24727 Z M404.780594,1667.53933 C404.460761,1667.56817 404.179523,1667.78166 404.052696,1668.09324 C402.850554,1670.8513 401.427792,1673.49384 399.801097,1676.00389 C399.657726,1676.20584 399.602585,1676.45972 399.641181,1676.70783 C399.679776,1676.95594 399.817642,1677.16942 400.016155,1677.31368 C400.209162,1677.45215 400.457309,1677.50409 400.688912,1677.45215 C400.926034,1677.40022 401.130066,1677.25598 401.256893,1677.04249 C402.938785,1674.45179 404.416687,1671.71102 405.657425,1668.85488 C405.784252,1668.57215 405.767721,1668.2375 405.60779,1667.97207 C405.447873,1667.70665 405.172155,1667.5451 404.874373,1667.53933 L404.780636,1667.53933 L404.780594,1667.53933 Z" id="Page-1" fill="#FAB451"></path>
    </g>
</svg>