<?xml version="1.0" encoding="UTF-8" standalone="no"?>
<svg width="134px" height="30px" viewBox="0 0 134 30" version="1.1" xmlns="http://www.w3.org/2000/svg" xmlns:xlink="http://www.w3.org/1999/xlink">
    <!-- Generator: Sketch 48.1 (47250) - http://www.bohemiancoding.com/sketch -->
    <title>Page 1</title>
    <desc>Created with Sketch.</desc>
    <defs>
        <polygon id="path-1" points="0 29.3948907 133.760396 29.3948907 133.760396 0 0 0"></polygon>
    </defs>
    <g id="minisitio-" stroke="none" stroke-width="1" fill="none" fill-rule="evenodd" transform="translate(-135.000000, -22.000000)">
        <g id="Page-1" transform="translate(135.000000, 22.000000)">
            <path d="M25.8415694,16.4741369 C25.8415694,23.6099619 20.0567022,29.3948291 12.9207231,29.3948291 C5.78489798,29.3948291 3.08156461e-05,23.6099619 3.08156461e-05,16.4741369 C3.08156461e-05,9.33831176 5.78489798,3.5534446 12.9207231,3.5534446 C20.0567022,3.5534446 25.8415694,9.33831176 25.8415694,16.4741369 Z" id="Fill-1" fill="#FCDE54"></path>
            <path d="M30.1457448,15.9494543 C30.1457448,8.5897535 24.1795275,2.62369033 16.8199809,2.62369033 C9.46028009,2.62369033 3.49406285,8.5897535 3.49406285,15.9494543 C3.49406285,23.309155 9.46028009,29.2752182 16.8199809,29.2752182 C24.1795275,29.2752182 30.1457448,23.309155 30.1457448,15.9494543" id="Fill-3" fill="#27E29F"></path>
            <path d="M32.0163469,14.06366 C32.0163469,8.28233661 27.3295953,3.595585 21.548272,3.595585 C15.7667945,3.595585 11.0800429,8.28233661 11.0800429,14.06366 C11.0800429,19.8449833 15.7667945,24.531735 21.548272,24.531735 C27.3295953,24.531735 32.0163469,19.8449833 32.0163469,14.06366" id="Fill-5" fill="#FAB451"></path>
            <path d="M22.0622153,8.86863509 C22.0622153,3.97064222 18.0916193,4.62234692e-05 13.1936264,4.62234692e-05 C8.29563356,4.62234692e-05 4.32503756,3.97064222 4.32503756,8.86863509 C4.32503756,13.766628 8.29563356,17.737224 13.1936264,17.737224 C18.0916193,17.737224 22.0622153,13.766628 22.0622153,8.86863509" id="Fill-7" fill="#FA828A"></path>
            <path d="M21.6938605,2.59279765 L17.4023195,13.3465337 L22.3707261,12.0955725 C23.2509751,11.874008 24.1440125,12.4081972 24.365577,13.2884462 C24.5869874,14.1686951 24.0529523,15.0618866 23.1727033,15.283297 L15.1168771,17.3115829 C14.2574288,17.5279087 13.3861164,17.0236106 13.139283,16.1804946 C13.0254192,15.8285799 13.0291171,15.4366049 13.1767241,15.0663549 L18.5497401,1.60284502 C17.7509986,1.45585438 16.9277586,1.37835303 16.0863374,1.37835303 C8.61878184,1.37835303 2.56504816,7.43208671 2.56504816,14.8996422 C2.56504816,22.3673518 8.61878184,28.4210855 16.0863374,28.4210855 C23.554047,28.4210855 29.6077806,22.3673518 29.6077806,14.8996422 C29.6077806,9.43248438 26.362739,4.7235455 21.6938605,2.59279765" id="Fill-9" fill="#5FA9F9"></path>
            <path d="M13.1392214,16.1804329 C13.3860547,17.0237031 14.2573671,17.5278471 15.1168155,17.3116753 L23.1726417,15.2833895 C24.0528906,15.061825 24.5869258,14.1686335 24.3655154,13.2883845 C24.1441049,12.4082897 23.2509134,11.8741005 22.3706645,12.0955109 L17.4022579,13.346472 L21.6937988,2.59273602 C20.7040003,2.14113272 19.6502593,1.80539626 18.5496785,1.60293746 L13.1768165,15.0664473 C13.0290555,15.4366973 13.0255117,15.8286723 13.1392214,16.1804329" id="Fill-11" fill="#FFFFFF"></path>
            <path d="M38.1184766,15.6369374 C38.1184766,14.9119993 38.2358842,14.2283542 38.4713157,13.5861561 C38.7064391,12.9441121 39.0464898,12.3845 39.4919299,11.9076279 C39.9367538,11.4306017 40.4772602,11.0523396 41.1132952,10.7726876 C41.7490219,10.4930357 42.4738059,10.3529785 43.2878012,10.3529785 C43.8219904,10.3529785 44.3113429,10.4005887 44.756629,10.4961172 C45.2016069,10.5914916 45.6341045,10.7283131 46.0536595,10.9062735 L45.4624614,13.1759999 C45.1952897,13.0744623 44.9026952,12.985251 44.5848318,12.9091364 C44.2669684,12.8327136 43.9107395,12.7946563 43.5167615,12.7946563 C42.6773433,12.7946563 42.0508612,13.0553566 41.6377775,13.5766033 C41.2243856,14.0983122 41.0177667,14.7850388 41.0177667,15.6369374 C41.0177667,16.5396817 41.2115971,17.2388887 41.5997201,17.7350206 C41.987381,18.2309985 42.6645548,18.4789103 43.6310875,18.4789103 C43.9745279,18.4789103 44.3432371,18.4473243 44.7375233,18.38369 C45.1315013,18.3202098 45.4940474,18.2185181 45.8248534,18.078461 L46.2254568,20.4055045 C45.8944967,20.5457157 45.4815671,20.6660508 44.9855892,20.7680506 C44.4896114,20.8695882 43.9426337,20.9205881 43.3449642,20.9205881 C42.4294314,20.9205881 41.640859,20.7837666 40.9797093,20.5104318 C40.3184056,20.237097 39.7748176,19.8651522 39.3487913,19.3945973 C38.9224568,18.9241964 38.6110647,18.3678199 38.4139986,17.7256219 C38.2167785,17.0834238 38.1184766,16.3872984 38.1184766,15.6369374" id="Fill-13" fill="#FFFFFF"></path>
            <path d="M51.7572504,20.8443039 C50.9304667,20.8315154 50.2597641,20.7424582 49.7446806,20.5772864 C49.2297511,20.4119604 48.8226765,20.1799186 48.5240728,19.8810068 C48.225007,19.5824032 48.0214697,19.2200112 47.9136149,18.7936768 C47.805452,18.3678045 47.7513705,17.8876968 47.7513705,17.3536616 L47.7513705,8.07691951 L50.5936516,7.61899901 L50.5936516,16.7814151 C50.5936516,17.0357982 50.6127573,17.2647585 50.6508147,17.4681417 C50.6890261,17.671525 50.7620591,17.8431682 50.8702221,17.9832253 C50.9780768,18.1231283 51.134004,18.2374543 51.3375413,18.3262034 C51.5409246,18.4154147 51.8145675,18.4725777 52.1578538,18.4978466 L51.7572504,20.8443039 Z" id="Fill-15" fill="#FFFFFF"></path>
            <path d="M59.8830744,15.6176776 C59.8830744,14.7403562 59.7081956,14.050702 59.3585921,13.5479447 C59.0086804,13.0459579 58.509621,12.7946563 57.8611058,12.7946563 C57.2125905,12.7946563 56.7099873,13.0459579 56.3542207,13.5479447 C55.9979918,14.050702 55.8200314,14.7403562 55.8200314,15.6176776 C55.8200314,16.494999 55.9979918,17.1914326 56.3542207,17.7065162 C56.7099873,18.2214456 57.2125905,18.4789103 57.8611058,18.4789103 C58.509621,18.4789103 59.0086804,18.2214456 59.3585921,17.7065162 C59.7081956,17.1914326 59.8830744,16.494999 59.8830744,15.6176776 M62.7825185,15.6176776 C62.7825185,16.40625 62.6680384,17.1279524 62.4392322,17.7826308 C62.210272,18.4379255 61.879466,18.9973836 61.4472766,19.4613131 C61.014779,19.9257049 60.4964598,20.2848613 59.8926272,20.5389363 C59.2884865,20.7934735 58.6113127,20.9205881 57.8611058,20.9205881 C57.1233792,20.9205881 56.4525226,20.7934735 55.84869,20.5389363 C55.2445493,20.2848613 54.7262301,19.9257049 54.2940406,19.4613131 C53.8615431,18.9973836 53.5244199,18.4379255 53.2831334,17.7826308 C53.0413846,17.1279524 52.9205873,16.40625 52.9205873,15.6176776 C52.9205873,14.8292593 53.0446203,14.1107925 53.2926862,13.4621232 C53.5405981,12.813762 53.8838844,12.260467 54.3226992,11.8025465 C54.7613599,11.3449342 55.2827607,10.9890135 55.8867473,10.7346303 C56.490734,10.4800931 57.1488021,10.3529785 57.8611058,10.3529785 C58.5860438,10.3529785 59.2504292,10.4800931 59.8544158,10.7346303 C60.4584025,10.9890135 60.9765676,11.3449342 61.4090652,11.8025465 C61.8412546,12.260467 62.1783778,12.813762 62.4201265,13.4621232 C62.6615671,14.1107925 62.7825185,14.8292593 62.7825185,15.6176776" id="Fill-17" fill="#FFFFFF"></path>
            <path d="M73.1594562,20.3101455 C72.6759587,20.4502026 72.0530205,20.5805528 71.2900251,20.7013501 C70.5270297,20.8219934 69.7258229,20.8823921 68.8865587,20.8823921 C68.0345061,20.8823921 67.325284,20.768066 66.7596628,20.5389517 C66.1937335,20.3101455 65.7453659,19.9892006 65.4148681,19.5758087 C65.0840621,19.1627249 64.8487846,18.6696746 64.7090357,18.0975821 C64.5689786,17.5253356 64.4991811,16.8956179 64.4991811,16.2091993 L64.4991811,10.6198574 L67.3414622,10.6198574 L67.3414622,15.8656049 C67.3414622,16.7814459 67.4621055,17.4427497 67.7038542,17.8493621 C67.9452948,18.2567449 68.3968981,18.4599741 69.0582019,18.4599741 C69.2614311,18.4599741 69.4777569,18.4504213 69.7068712,18.4313156 C69.9356774,18.412364 70.1389066,18.3901767 70.3171751,18.3644456 L70.3171751,10.6198574 L73.1594562,10.6198574 L73.1594562,20.3101455 Z" id="Fill-19" fill="#FFFFFF"></path>
            <path d="M77.8707217,15.5604992 C77.8707217,16.4378206 78.0677878,17.143653 78.4620739,17.6776881 C78.856052,18.2120314 79.441087,18.4788949 80.217025,18.4788949 C80.4712541,18.4788949 80.7063774,18.4694962 80.9228574,18.4503905 C81.138721,18.4312848 81.3168354,18.4090975 81.4568925,18.3836746 L81.4568925,13.2141959 C81.278624,13.0997158 81.0467363,13.0043413 80.760613,12.9280726 C80.4744897,12.8516498 80.1851308,12.8137466 79.8926903,12.8137466 C78.5446599,12.8137466 77.8707217,13.7292794 77.8707217,15.5604992 Z M84.2990195,20.3293745 C84.0444823,20.4054891 83.7521959,20.4789844 83.4216981,20.5486278 C83.0907381,20.6185793 82.7443702,20.678978 82.3819782,20.7299779 C82.0195862,20.7805155 81.6505688,20.8219626 81.2756965,20.8537027 C80.9003619,20.8855969 80.5413597,20.901621 80.1979193,20.901621 C79.3711355,20.901621 78.6337171,20.7805155 77.9852018,20.539075 C77.3365325,20.2976344 76.7897088,19.9511124 76.3447309,19.4995091 C75.8994448,19.0483681 75.5593942,18.5012363 75.3242708,17.8590382 C75.0886852,17.2169942 74.9712776,16.4949836 74.9712776,15.6939309 C74.9712776,14.8802438 75.0729692,14.1459069 75.2765065,13.4907663 C75.4797357,12.8359338 75.7723303,12.2795573 76.153982,11.8217909 C76.5354797,11.3638704 77.002799,11.014421 77.5560939,10.7726722 C78.1090807,10.5310776 78.7415719,10.4101262 79.4538755,10.4101262 C79.8480076,10.4101262 80.2008468,10.4481835 80.5127011,10.5246063 C80.8240932,10.6010291 81.138721,10.709192 81.4568925,10.8487869 L81.4568925,8.07691951 L84.2990195,7.61899901 L84.2990195,20.3293745 Z" id="Fill-21" fill="#FFFFFF"></path>
            <path d="M86.4925697,8.12110915 L89.3346967,7.66334273 L89.3346967,10.6199499 L92.7492244,10.6199499 L92.7492244,12.9852048 L89.3346967,12.9852048 L89.3346967,16.5143667 C89.3346967,17.1121902 89.439624,17.5889083 89.6494786,17.9449831 C89.8593331,18.3009038 90.2819697,18.4790182 90.9180046,18.4790182 C91.2232336,18.4790182 91.5378613,18.4503596 91.862196,18.3930425 C92.1865307,18.3358795 92.4822068,18.2566833 92.7492244,18.1545294 L93.1498278,20.3672469 C92.8065415,20.5076122 92.4248897,20.6282554 92.0053347,20.7299471 C91.5856256,20.8314846 91.0705421,20.8823304 90.4602382,20.8823304 C89.6843002,20.8823304 89.0419481,20.7775572 88.533644,20.5677027 C88.0248777,20.3580022 87.6179571,20.0654077 87.3127281,19.6902272 C87.0076532,19.3153548 86.7944089,18.8605159 86.6737657,18.3261726 C86.5528143,17.7922915 86.4925697,17.2010934 86.4925697,16.5525781 L86.4925697,8.12110915 Z" id="Fill-23" fill="#FFFFFF"></path>
            <path d="M97.784655,7.72056738 C97.784655,8.24212219 97.6160935,8.65227844 97.2792784,8.95088205 C96.9421553,9.24979382 96.5449416,9.3992497 96.0870211,9.3992497 C95.6292547,9.3992497 95.2317328,9.24979382 94.8947638,8.95088205 C94.5577947,8.65227844 94.3893872,8.24212219 94.3893872,7.72056738 C94.3893872,7.19932073 94.5577947,6.78916448 94.8947638,6.49009863 C95.2317328,6.1916491 95.6292547,6.04188506 96.0870211,6.04188506 C96.5449416,6.04188506 96.9421553,6.1916491 97.2792784,6.49009863 C97.6160935,6.78916448 97.784655,7.19932073 97.784655,7.72056738" id="Fill-25" fill="#FFFFFF"></path>
            <mask id="mask-2" fill="white">
                <use xlink:href="#path-1"></use>
            </mask>
            <g id="Clip-28"></g>
            <polygon id="Fill-27" fill="#FFFFFF" mask="url(#mask-2)" points="94.6753718 20.6535705 97.5176529 20.6535705 97.5176529 10.6199961 94.6753718 10.6199961"></polygon>
            <path d="M105.319296,15.3314927 C105.319296,14.4159599 105.20158,13.7674446 104.966303,13.3859469 C104.731026,13.0042951 104.327341,12.8137003 103.755248,12.8137003 C103.57698,12.8137003 103.392548,12.8232532 103.201953,12.8423589 C103.011358,12.8613105 102.826773,12.8836518 102.648658,12.9090748 L102.648658,20.6535089 L99.8065312,20.6535089 L99.8065312,10.9633749 C100.047972,10.8998946 100.331014,10.8331788 100.655348,10.7632272 C100.979529,10.6931216 101.322969,10.6294873 101.685361,10.5721702 C102.047907,10.5150072 102.419852,10.4707868 102.80135,10.4387385 C103.182693,10.4073065 103.55772,10.3912824 103.926891,10.3912824 C104.651675,10.3912824 105.239638,10.4834212 105.691241,10.6676987 C106.142382,10.8521304 106.514327,11.0716919 106.807076,11.3257669 C107.213996,11.0333264 107.681315,10.8045202 108.209188,10.6390402 C108.736751,10.4740224 109.223022,10.3912824 109.668462,10.3912824 C110.469515,10.3912824 111.127737,10.5025269 111.642821,10.7250158 C112.15775,10.9476589 112.567907,11.2622866 112.873136,11.6690532 C113.178365,12.0762819 113.388065,12.5594713 113.502545,13.1189293 C113.617025,13.6783874 113.674188,14.3014797 113.674188,14.9882064 L113.674188,20.6535089 L110.832061,20.6535089 L110.832061,15.3314927 C110.832061,14.4159599 110.714345,13.7674446 110.479068,13.3859469 C110.243482,13.0042951 109.840106,12.8137003 109.267859,12.8137003 C109.115168,12.8137003 108.902077,12.8516036 108.628743,12.9280264 C108.355254,13.0042951 108.129529,13.0998236 107.951569,13.2143037 C108.040472,13.5070524 108.097789,13.8150548 108.123212,14.1395435 C108.148635,14.46357 108.161423,14.810246 108.161423,15.1789552 L108.161423,20.6535089 L105.319296,20.6535089 L105.319296,15.3314927 Z" id="Fill-29" fill="#FFFFFF" mask="url(#mask-2)"></path>
            <path d="M122.067261,14.625799 C122.054626,14.3845125 122.013179,14.1487728 121.943382,13.9199666 C121.873276,13.6911604 121.765114,13.4877772 121.619201,13.3096627 C121.472827,13.1317024 121.288241,12.9853281 121.065906,12.8708479 C120.843263,12.7563678 120.566539,12.6992048 120.236041,12.6992048 C119.918024,12.6992048 119.644843,12.7535944 119.415883,12.8612951 C119.186922,12.969458 118.996328,13.1125967 118.843636,13.290403 C118.691099,13.4688256 118.573383,13.6752904 118.490797,13.9104138 C118.407903,14.1459994 118.347658,14.3845125 118.309601,14.625799 L122.067261,14.625799 Z M115.391051,15.7131291 C115.391051,14.8230191 115.52741,14.0439996 115.801207,13.3763786 C116.074388,12.7089117 116.433699,12.1525352 116.878985,11.7074032 C117.323963,11.2622712 117.83581,10.9251481 118.414374,10.6963419 C118.993092,10.4675357 119.587526,10.3530556 120.197984,10.3530556 C121.621975,10.3530556 122.747516,10.7886347 123.5743,11.6594849 C124.40093,12.5307973 124.814322,13.8122659 124.814322,15.5031204 C124.814322,15.6687545 124.807696,15.8497965 124.795062,16.0468625 C124.782273,16.2442367 124.769639,16.4189614 124.757005,16.5714989 L118.309601,16.5714989 C118.373081,17.1565339 118.646416,17.6206176 119.129914,17.9639039 C119.612795,18.3073442 120.261464,18.4789874 121.075459,18.4789874 C121.596706,18.4789874 122.108554,18.4312231 122.610849,18.3358487 C123.113298,18.2406284 123.5233,18.1230667 123.841318,17.9831636 L124.222815,20.2912555 C124.070278,20.3673702 123.866586,20.443793 123.612511,20.5200617 C123.35782,20.5963304 123.075241,20.6632004 122.763695,20.7203634 C122.45184,20.7775264 122.118107,20.8251366 121.762032,20.863348 C121.405957,20.9015594 121.049728,20.920511 120.693962,20.920511 C119.790909,20.920511 119.005726,20.7870793 118.338105,20.5200617 C117.670485,20.25289 117.117344,19.8875706 116.678683,19.4231788 C116.239868,18.9590951 115.915533,18.4091899 115.705833,17.7733091 C115.495978,17.1375823 115.391051,16.4508556 115.391051,15.7131291 Z" id="Fill-30" fill="#FFFFFF" mask="url(#mask-2)"></path>
            <path d="M129.506574,18.6125732 C130.027975,18.6125732 130.396684,18.5618815 130.61301,18.4600358 C130.829027,18.3583441 130.93719,18.1612781 130.93719,17.8686835 C130.93719,17.6398773 130.797133,17.4395756 130.517481,17.2677784 C130.237675,17.0961353 129.811803,16.9023048 129.239556,16.685979 C128.79427,16.5208072 128.390739,16.349164 128.028347,16.1708955 C127.665801,15.9929351 127.357337,15.7796909 127.103108,15.5319331 C126.84857,15.2838671 126.651658,14.9883451 126.511755,14.6449047 C126.371698,14.3016184 126.301901,13.8883806 126.301901,13.4048831 C126.301901,12.4640814 126.651658,11.7201917 127.351019,11.173214 C128.050226,10.6265444 129.01075,10.3530556 130.231512,10.3530556 C130.84197,10.3530556 131.426543,10.4072911 131.986309,10.5149918 C132.545767,10.6231547 132.990745,10.7410246 133.321705,10.867985 L132.825573,13.0808566 C132.494921,12.9662224 132.135765,12.8645307 131.747796,12.7754735 C131.359827,12.6867245 130.924402,12.6420418 130.441367,12.6420418 C129.551103,12.6420418 129.10597,12.8897996 129.10597,13.3859315 C129.10597,13.5002575 129.124922,13.6022573 129.163134,13.6911604 C129.201345,13.7802177 129.277768,13.8660392 129.392094,13.9484711 C129.506574,14.0315193 129.662193,14.1208846 129.859567,14.2170294 C130.056479,14.3131743 130.307627,14.4188719 130.61301,14.5339684 C131.235948,14.7649316 131.750877,14.9926593 132.157952,15.2168431 C132.564873,15.441181 132.885818,15.683392 133.121403,15.943476 C133.356527,16.2037142 133.522007,16.4924568 133.617227,16.8095498 C133.712601,17.1267968 133.760366,17.4948897 133.760366,17.9133662 C133.760366,18.9031648 133.388421,19.6518309 132.644531,20.1593646 C131.900641,20.6665901 130.847979,20.920511 129.487468,20.920511 C128.597358,20.920511 127.856704,20.8442423 127.265198,20.6917049 C126.673846,20.5390133 126.263689,20.4120529 126.034883,20.3102072 L126.511755,18.0021153 C126.994945,18.19271 127.490768,18.3424741 127.999535,18.4503288 C128.508147,18.5584917 129.01075,18.6125732 129.506574,18.6125732" id="Fill-31" fill="#FFFFFF" mask="url(#mask-2)"></path>
        </g>
    </g>
</svg>