<?xml version="1.0" encoding="UTF-8" standalone="no"?>
<svg width="71px" height="57px" viewBox="0 0 71 57" version="1.1" xmlns="http://www.w3.org/2000/svg" xmlns:xlink="http://www.w3.org/1999/xlink">
    <!-- Generator: Sketch 48.1 (47250) - http://www.bohemiancoding.com/sketch -->
    <title>Group</title>
    <desc>Created with Sketch.</desc>
    <defs></defs>
    <g id="minisitio-" stroke="none" stroke-width="1" fill="none" fill-rule="evenodd" transform="translate(-587.000000, -1616.000000)">
        <g id="Group" transform="translate(587.000000, 1616.000000)" fill="#FA828A">
            <path d="M8.19476032,0.000113999088 C2.86281837,-0.013246694 0.143140918,5.4373005 0,10.0819653 L0,48.9488144 C0,51.3579571 0.268394948,53.3662791 1.53882213,54.8625171 C2.80924931,56.3587551 4.88923572,57 7.80129456,57 L62.9105481,57 C65.4244462,57 67.4955235,56.3676585 68.9224667,54.9694482 C70.3494099,53.571238 70.99801,51.5272458 70.99801,49.0914273 C71.0024875,39.8958048 70.99801,30.7136343 70.99801,21.5173279 C70.99801,19.1126311 70.3538759,17.0597355 68.9583092,15.6748746 C68.2604915,14.980187 67.4060891,14.4680803 66.4175006,14.1429549 C66.3951363,8.84382125 66.1356962,5.50843593 65.3439437,3.3130415 C64.4358921,0.984040128 62.8613077,0.209188326 60.6560214,0 L8.19476032,0.000113999088 Z M8.27681966,2.28196752 L61.0340424,2.28196752 C62.545521,2.23300286 63.0673122,3.10544446 63.5892185,4.06244896 C63.823132,4.70342228 63.9805792,5.67827147 64.1290323,6.84 L3.05838962,6.84 C2.91443928,4.54765152 6.16230437,2.32652229 8.27653176,2.28196752 L8.27681966,2.28196752 Z M2.29055751,9.12005656 L63.9855555,9.12005656 C64.0707463,10.4102608 64.1155799,11.9259059 64.1290323,13.68 C45.4816474,13.6048795 26.6414297,13.6446512 7.92173259,13.6446512 C5.22700985,13.2027964 2.28573669,11.7622832 2.29032258,9.12 L2.29055751,9.12005656 Z M2.29032258,13.68 C3.85151289,14.940598 6.17755247,15.929195 8.01609942,15.9603167 L63.0912016,15.9603167 C65.1309524,15.9603167 66.4863583,16.4546038 67.3498054,17.3140516 C68.2132526,18.1734995 68.7096774,19.5049933 68.7096774,21.5177549 L68.7096774,28.5001773 L61.9461608,28.5001773 C59.4143368,28.5001773 57.3610732,29.1146989 55.9340951,30.3526567 C54.507117,31.5906146 53.8226576,33.4163727 53.8226576,35.4113505 C53.8226576,37.3439711 54.5249585,39.1118634 55.9340951,40.3275459 C57.3432317,41.5432284 59.3561629,42.1800253 61.8387452,42.1800253 L68.7096774,42.1800253 L68.7096774,49.0911985 C68.7096774,51.1440877 68.1952507,52.466587 67.3139621,53.3305834 C66.4326734,54.1945798 65.050448,54.72 62.9122139,54.72 L7.80161182,54.72 C5.20268171,54.72 3.9724413,54.2034489 3.29256256,53.4019466 C2.61268382,52.6004444 2.29055161,51.1709914 2.29055161,48.9489281 L2.29032258,13.68 Z M62.5046106,30.4 L69.4731183,30.4 L69.4731183,39.52 L62.3939394,39.52 C60.2278286,39.52 58.7668041,38.9989858 57.8587814,38.2375 C56.9507587,37.4760142 56.4946237,36.447358 56.4946237,35.03125 C56.4946237,33.535 56.9416856,32.457358 57.8587814,31.6825 C58.7758773,30.907642 60.2830462,30.4 62.5044926,30.4 L62.5046106,30.4 Z M61.0752688,32.68 C59.809293,32.68 58.7849462,33.6997642 58.7849462,34.96 C58.7849462,36.2202358 59.8093274,37.24 61.0752688,37.24 C62.3412103,37.24 63.3655914,36.2202358 63.3655914,34.96 C63.3655914,33.6997642 62.3412103,32.68 61.0752688,32.68 Z" id="Page-1"></path>
            <text id=":)" font-family="HelveticaNeue, Helvetica Neue" font-size="30" font-weight="normal" letter-spacing="-0.0182142816">
                <tspan x="23" y="43">:)</tspan>
            </text>
        </g>
    </g>
</svg>