<?xml version="1.0" encoding="UTF-8" standalone="no"?>
<svg width="64px" height="65px" viewBox="0 0 64 65" version="1.1" xmlns="http://www.w3.org/2000/svg" xmlns:xlink="http://www.w3.org/1999/xlink">
    <!-- Generator: Sketch 48.1 (47250) - http://www.bohemiancoding.com/sketch -->
    <title>Page 1</title>
    <desc>Created with Sketch.</desc>
    <defs></defs>
    <g id="minisitio-" stroke="none" stroke-width="1" fill="none" fill-rule="evenodd" transform="translate(-1220.000000, -1613.000000)">
        <path d="M1284,1676.30584 C1276.30472,1671.43749 1268.01837,1668.7773 1258.69381,1668.18523 L1258.69381,1663.9747 C1260.69936,1663.05325 1262.48528,1661.73238 1263.94696,1660.11139 L1270.21202,1660.11139 C1273.82565,1660.11139 1276.76734,1657.193 1276.76734,1653.60374 L1276.76734,1637.77215 C1276.76734,1624.11239 1265.65684,1613 1252,1613 C1238.34316,1613 1227.23266,1624.11239 1227.23266,1637.77215 L1227.23266,1653.60374 C1227.23266,1657.19039 1230.17429,1660.11139 1233.78798,1660.11139 L1240.05565,1660.11139 C1241.51472,1661.73244 1243.30064,1663.05325 1245.30619,1663.9747 L1245.30619,1668.18523 C1235.98163,1668.77778 1227.69528,1671.43775 1220,1676.30584 L1221.0747,1678 C1228.15548,1673.52063 1235.46921,1671.05351 1243.90416,1670.30707 C1246.18162,1671.48694 1249.09452,1672.13955 1252.16708,1672.13955 C1255.20289,1672.13955 1258.12356,1671.4974 1260.39318,1670.3332 C1268.70296,1671.10851 1275.92498,1673.57269 1282.92476,1677.99739 L1284,1676.30584 Z M1233.59526,1658 C1231.06114,1658 1229,1655.98438 1229,1653.50775 L1229,1637.71358 C1229,1625.18744 1239.31888,1615 1252,1615 C1264.68112,1615 1275,1625.18744 1275,1637.71358 L1275,1653.50775 C1275,1655.98431 1272.93886,1658 1270.40474,1658 L1265.62452,1658 C1266.70796,1656.35152 1267.49801,1654.50256 1267.90761,1652.51294 C1268.06616,1651.92439 1268.17185,1651.29939 1268.22735,1650.64052 C1268.34362,1650.65093 1268.45461,1650.66656 1268.57352,1650.66656 C1270.99927,1650.66656 1272.97057,1648.72381 1272.97057,1646.33318 L1272.97057,1642.33314 C1272.97057,1639.94251 1270.99927,1637.99976 1268.57352,1637.99976 C1268.45724,1637.99976 1268.34891,1638.01538 1268.23528,1638.0232 L1268.23528,1637.02839 C1268.48896,1637.00495 1268.74528,1636.98411 1268.99367,1636.94244 C1269.54595,1636.8513 1269.91854,1636.33827 1269.82607,1635.79137 C1269.73358,1635.24709 1269.20773,1634.87729 1268.65807,1634.96842 C1262.98208,1635.9033 1254.90678,1631.26525 1254.01113,1626.56233 C1253.92393,1626.1092 1253.53813,1625.77326 1253.07043,1625.74719 C1252.59479,1625.72636 1252.17993,1626.01282 1252.04254,1626.45293 C1249.99466,1633.02594 1240.28615,1636.1877 1234.04707,1636.33037 C1233.48686,1636.34339 1233.04291,1636.80173 1233.05617,1637.35385 C1233.06938,1637.89813 1233.52125,1638.33039 1234.07088,1638.33039 L1234.09466,1638.33039 C1234.62579,1638.31737 1235.18864,1638.27831 1235.76202,1638.22362 L1235.76467,1649.31507 C1235.76467,1652.51564 1236.72654,1655.49481 1238.37544,1657.99983 L1233.59526,1658 Z M1268.01465,1648.96469 C1268.00879,1648.85923 1268.00879,1648.75916 1268,1648.65369 L1268,1640.03516 C1268.12305,1640.01893 1268.24609,1640 1268.375,1640 C1269.82227,1640 1271,1641.08713 1271,1642.42308 L1271,1646.57692 C1271,1647.91287 1269.82227,1649 1268.375,1649 C1268.25195,1649 1268.13477,1648.98107 1268.01465,1648.96484 L1268.01465,1648.96469 Z M1238.00029,1648.98009 L1238.00029,1637.61316 C1243.56277,1636.65351 1250.06017,1633.84238 1252.9248,1629 C1255.18258,1633.0342 1260.81805,1636.35877 1266,1636.70324 L1266,1648.98076 C1266,1649.9091 1265.90365,1650.81141 1265.73178,1651.69021 C1264.98438,1654.44139 1262.86201,1656.13906 1259.25264,1656.93181 C1258.7813,1656.18078 1257.95059,1655.67749 1257.00007,1655.67749 L1253.66677,1655.67488 C1252.19805,1655.67488 1251.00013,1656.87185 1251.00013,1658.34521 C1251.00013,1659.81596 1252.19545,1661.01554 1253.66677,1661.01554 L1257.00007,1661.01554 C1258.28132,1661.01554 1259.34898,1660.10803 1259.60684,1658.90064 C1260.81516,1658.63987 1261.89588,1658.2826 1262.84641,1657.82883 C1260.2787,1660.98163 1256.37254,1663 1251.99985,1663 C1244.28127,1663 1238,1656.7127 1238,1648.98076 L1238.00029,1648.98009 Z M1258,1658.5 C1258,1658.77539 1257.67913,1659 1257.28571,1659 L1253.71429,1659 C1253.32087,1659 1253,1658.77539 1253,1658.5 C1253,1658.22461 1253.31808,1658 1253.71429,1658 L1257.28571,1658 C1257.67913,1658 1258,1658.22461 1258,1658.5 Z M1247,1669.3977 L1247,1665 C1248.4238,1665.4209 1249.93554,1665.6483 1251.5,1665.6483 C1253.06446,1665.6483 1254.5762,1665.42091 1256,1665.00242 L1256,1669.48718 C1254.65148,1669.81858 1253.17998,1670 1251.66071,1670 C1250.03602,1669.99758 1248.4364,1669.78229 1247,1669.39768 L1247,1669.3977 Z" id="Page-1" fill="#ACDE34"></path>
    </g>
</svg>