<svg width="65" height="65" viewBox="0 0 65 65" xmlns="http://www.w3.org/2000/svg">
    <title>
        Page 1
    </title>
    <path d="M32.5 0C14.561 0 0 14.565 0 32.5 0 50.435 14.561 65 32.5 65S65 50.435 65 32.5C65 14.565 50.439 0 32.5 0zm0 2C49.359 2 63 15.641 63 32.5S49.359 63 32.5 63 2 49.359 2 32.5 15.641 2 32.5 2zm-.45 9c-.578 0-1.05.502-1.05 1.117V32.23c0 .31.107.602.296.803l11.886 12.64c.41.436 1.1.436 1.51 0 .41-.437.41-1.17 0-1.607l-11.59-12.325V12.118c0-.616-.473-1.118-1.051-1.118z" fill="#AD6CFF" fill-rule="evenodd"/>
</svg>
