<svg width="87" height="58" viewBox="0 0 87 58" xmlns="http://www.w3.org/2000/svg">
    <title>
        Page 1
    </title>
    <path d="M70.602 23.301C68.5 10.301 57 .5 43.5.5s-25 9.8-27.102 22.801C7.296 23.903 0 31.501 0 40.602 0 50.2 7.898 58 17.5 58h52C79.102 58 87 50.2 87 40.602c0-9.102-7.3-16.703-16.398-17.301zM69.5 56h-52C9 56 2 49.102 2 40.602c0-8.3 6.801-15.199 15.301-15.301.5 0 .899-.398 1-.898C19.9 11.899 30.801 2.5 43.501 2.5c12.698 0 23.601 9.398 25.3 21.898.102.5.5.898 1 .898 8.399.102 15.301 7 15.301 15.301C85.001 49.102 78.001 56 69.5 56z" fill="#27E29F" fill-rule="evenodd"/>
</svg>
