<svg width="77" height="66" viewBox="0 0 77 66" xmlns="http://www.w3.org/2000/svg">
    <title>
        Page 1
    </title>
    <g fill="#5FA9F9" fill-rule="evenodd">
        <path d="M24.745 48.825H3.7c-.84 0-1.525-.68-1.525-1.52V41.73h41.902v-2.17l-41.9.002V4.26c0-.837.684-1.52 1.526-1.52h57.182c.839 0 1.525.68 1.525 1.52v16.899h2.177l-.003-16.9a3.699 3.699 0 0 0-3.7-3.686L3.7.57A3.7 3.7 0 0 0 0 4.26v43.049a3.699 3.699 0 0 0 3.7 3.687h19.957v11.938h-6.75v2.17H40.42c.602 0 1.089-.486 1.089-1.085V50.996h4.094v-2.17H24.745zM39.33 62.933H25.834V50.996H39.33v11.937z"/>
        <path d="M28.665 46.364h6.993v-2.17h-6.993z"/>
        <path d="M8.13 8.574h4.064v-2.17H7.042c-.602 0-1.09.485-1.09 1.085v8.462H8.13V8.574z"/>
        <path d="M5.952 23.11H8.13v-3.906H5.952z"/>
        <path d="M73.655 23.17h-22.29a3.344 3.344 0 0 0-3.345 3.333V62.09c0 1.838 1.5 3.334 3.344 3.334h22.291A3.344 3.344 0 0 0 77 62.09V26.503c0-1.834-1.501-3.333-3.345-3.333zM50.194 35.137h24.63V54.12l-24.63-.003V35.137zm0-8.63a1.17 1.17 0 0 1 1.17-1.166h22.29c.644 0 1.17.521 1.17 1.166v6.46h-24.63v-6.46zm24.628 35.587a1.17 1.17 0 0 1-1.17 1.166H51.36a1.17 1.17 0 0 1-1.17-1.166v-5.807h24.63l.004 5.807h-.003z"/>
        <path d="M59.78 60.859h5.457v-2.17H59.78z"/>
    </g>
</svg>
