<svg width="68" height="68" viewBox="0 0 68 68" xmlns="http://www.w3.org/2000/svg">
    <title>
        Page 1
    </title>
    <path d="M34.774.005c-7.339-.118-14.602 2-20.668 6.154a.797.797 0 0 0-.193 1.141c.28.364.811.45 1.198.19C22.794 2.23 32.491.399 41.7 2.476a.916.916 0 0 0 .666-.087.795.795 0 0 0 .285-1.146.87.87 0 0 0-.553-.358 35.97 35.97 0 0 0-7.323-.88zM46.69 2.293a.838.838 0 0 0-.831.69c-.08.402.142.8.526.948 13.23 5.42 21.291 19.012 19.744 33.317a.845.845 0 0 0 .178.63.84.84 0 0 0 1.194.132.833.833 0 0 0 .3-.582c1.626-15.048-6.86-29.364-20.786-35.067a.751.751 0 0 0-.326-.069v.001zM34.03 4.586c-.635 0-1.27.037-1.906.09a.84.84 0 0 0-.59.277.864.864 0 0 0-.206.625c.015.23.124.44.3.587.175.142.403.21.625.184a26.334 26.334 0 0 1 13.92 2.728.8.8 0 0 0 .63.048.84.84 0 0 0 .523-1.065.846.846 0 0 0-.419-.488A28.011 28.011 0 0 0 34.03 4.586zm-8.125 1.526a.807.807 0 0 0-.224.033C13.186 9.603 4.49 21.31 4.49 34.679c0 3.647.293 5.26-.067 8.546a7.959 7.959 0 0 1-1.917 4.23.887.887 0 0 0 .058 1.22.82.82 0 0 0 1.18-.055 9.7 9.7 0 0 0 2.334-5.168v-.022c.38-3.458.083-5.195.083-8.75 0-12.593 8.177-23.61 19.952-26.868a.863.863 0 0 0 .621-.944.844.844 0 0 0-.825-.756h-.005zm-15.324 4.585a.844.844 0 0 0-.587.258C2.111 18.904-1.425 30.235.527 41.3c.038.225.16.43.347.564a.862.862 0 0 0 .645.145.87.87 0 0 0 .555-.36.887.887 0 0 0 .133-.656C.351 30.481 3.712 19.721 11.205 12.17a.856.856 0 0 0 .187-.946.854.854 0 0 0-.811-.527zm23.584 0v.005c-.657 0-1.314.027-1.966.085-7.798.674-15.004 4.994-19.075 11.894a.803.803 0 0 0-.108.654.83.83 0 0 0 .404.532.87.87 0 0 0 1.196-.342C19.667 14.963 29.878 10.686 39.7 13.01c9.829 2.323 16.906 10.688 17.406 20.565.01.227.108.437.28.585a.875.875 0 0 0 .625.221.92.92 0 0 0 .598-.28.86.86 0 0 0 .22-.61c-.538-10.615-8.164-19.628-18.725-22.125a24.853 24.853 0 0 0-5.94-.669zm17.064.764a.836.836 0 0 0-.766.588.822.822 0 0 0 .308.908 26.555 26.555 0 0 1 9.476 13.168.847.847 0 0 0 .406.516.856.856 0 0 0 .657.062.828.828 0 0 0 .526-1.078A28.254 28.254 0 0 0 51.77 11.636a.862.862 0 0 0-.542-.175zm-17.696 3.056a18.961 18.961 0 0 0-14.728 7.042 19.318 19.318 0 0 0-3.907 15.956.86.86 0 0 0 .357.545c.189.126.414.169.634.126a.855.855 0 0 0 .535-.364.84.84 0 0 0 .12-.64 17.594 17.594 0 0 1 3.56-14.55 17.279 17.279 0 0 1 13.429-6.423c.225 0 .44-.085.603-.243a.856.856 0 0 0 .246-.603.836.836 0 0 0-.85-.846h.001zm5.54.765v.005h-.085a.853.853 0 1 0-.18 1.669c7.257 2.33 12.174 9.122 12.174 16.804v.016c.095 4.559.079 9.31-.375 13.42a.844.844 0 1 0 1.68.192c.47-4.25.48-9.048.385-13.633-.006-8.419-5.408-15.878-13.35-18.426a1.02 1.02 0 0 0-.25-.048zm-5.605 3.842c-1.87.1-3.735.543-5.472 1.343a.815.815 0 0 0-.443.457.78.78 0 0 0 .037.618.838.838 0 0 0 .492.408c.219.07.454.06.657-.036 4.093-1.87 8.94-1.543 12.706.865.187.12.417.166.642.13a.886.886 0 0 0 .555-.341c.128-.181.171-.397.128-.608a.805.805 0 0 0-.368-.518 14.99 14.99 0 0 0-7.064-2.303c-.62-.045-1.245-.05-1.87-.015zm-9.125 4.562a.864.864 0 0 0-.578.258 14.214 14.214 0 0 0-4.157 10.052v5.575c0 7.133-2.949 13.728-7.863 18.552a.825.825 0 0 0-.283.6.824.824 0 0 0 .236.62.845.845 0 0 0 1.225-.021c5.218-5.129 8.361-12.156 8.366-19.751v-5.576c0-3.324 1.32-6.512 3.669-8.863a.842.842 0 0 0-.615-1.446zm9.252.763a.756.756 0 0 0-.306.065c-2.301.081-4.505 1.022-6.14 2.741-1.712 1.79-2.674 4.223-2.669 6.758l-.03 3.774c0 .227.082.454.237.616.15.168.362.265.585.265a.81.81 0 0 0 .59-.249.869.869 0 0 0 .243-.616l.03-3.774c0-2.081.787-4.07 2.189-5.541 1.396-1.47 3.295-2.292 5.27-2.298 4.175 0 7.537 3.52 7.537 7.882v2.498c0 4.563-.45 9.104-1.35 13.564a.917.917 0 0 0 .114.66c.119.195.305.33.522.378.218.05.445 0 .631-.124.182-.13.31-.33.352-.557a70.559 70.559 0 0 0 1.387-13.921v-2.498c0-5.185-3.968-9.369-8.887-9.547a.995.995 0 0 0-.305-.065v-.01zm11.538 1.529a.812.812 0 0 0-.723.465.93.93 0 0 0 .046.904c1.538 2.47 2.24 5.423 1.988 8.376-.035.482.298.904.749.948.445.043.845-.313.886-.79.282-3.352-.512-6.699-2.255-9.503a.8.8 0 0 0-.691-.4zm-33.834 1.53a.874.874 0 0 0-.807.63 22.6 22.6 0 0 0-.818 7.346c.088 2.636-.066 3.579-.033 7.257v.016c.082 3.136-1.68 6.065-4.611 7.643-.423.224-.571.735-.33 1.13.236.402.769.543 1.192.319 3.486-1.87 5.605-5.377 5.506-9.134-.033-3.62.12-4.585.027-7.3V35.4c-.12-2.303.138-4.605.763-6.83a.798.798 0 0 0-.153-.75.916.916 0 0 0-.736-.313zm23.221 2.29c-2.447 0-4.451 2.028-4.451 4.51l-.047 4.62a49.822 49.822 0 0 1-2.458 13.402.843.843 0 0 0 .02.666.82.82 0 0 0 .491.443c.22.074.454.053.658-.052a.858.858 0 0 0 .412-.523 51.514 51.514 0 0 0 2.541-13.857v-.037l.047-4.662c0-1.563 1.237-2.815 2.782-2.815a2.78 2.78 0 0 1 2.781 2.815.856.856 0 0 0 .835.86.841.841 0 0 0 .835-.86c0-2.477-1.999-4.505-4.446-4.505v-.005zm27.773 0v.006a.872.872 0 0 0-.615.3.804.804 0 0 0-.185.649c.132 1.016.212 2.038.228 3.06v5.196c0 5.046-.7 10.071-2.088 14.93a.805.805 0 0 0 .07.644.844.844 0 0 0 .513.399.87.87 0 0 0 .652-.083.833.833 0 0 0 .397-.513 56.153 56.153 0 0 0 2.15-15.377V33.782c-.015-1.09-.1-2.173-.243-3.252a.834.834 0 0 0-.88-.731zm-5.12 6.876a.88.88 0 0 0-.601.269.818.818 0 0 0-.23.6 65.1 65.1 0 0 1-3.576 22.458.827.827 0 0 0 .043.649c.096.2.278.358.493.432a.894.894 0 0 0 .66-.048c.203-.1.358-.274.433-.49 2.563-7.41 3.801-15.2 3.662-23.025a.843.843 0 0 0-.263-.607.874.874 0 0 0-.622-.237zm-19.137.764a.877.877 0 0 0-.858.806c-.797 9.794-4.066 19.275-9.529 27.669a.847.847 0 0 0-.123.655.865.865 0 0 0 .404.537.92.92 0 0 0 1.245-.285c5.614-8.623 8.967-18.368 9.786-28.441a.822.822 0 0 0-.24-.672.935.935 0 0 0-.685-.268zm9.251 1.528a.858.858 0 0 0-.857.863 67.072 67.072 0 0 1-5.843 26.155.849.849 0 0 0-.042.674.853.853 0 0 0 1.123.517.868.868 0 0 0 .47-.485 68.802 68.802 0 0 0 5.996-26.828.864.864 0 0 0-.847-.895zM15.84 41.26c-.475.021-.857.362-.88.79-.359 4.766-2.87 9.185-6.946 12.216a.813.813 0 0 0-.364.571.768.768 0 0 0 .202.634.999.999 0 0 0 .649.303c.249.016.497-.063.688-.214 4.469-3.325 7.23-8.169 7.617-13.394a.782.782 0 0 0-.254-.65.992.992 0 0 0-.712-.256zm9.179 0c-.43.027-.781.331-.843.732-1.171 7-4.153 13.62-8.69 19.27a.836.836 0 0 0-.198.64c.034.23.158.438.356.577a.962.962 0 0 0 .685.165.941.941 0 0 0 .6-.352c4.718-5.873 7.824-12.755 9.034-20.033a.807.807 0 0 0-.215-.715.917.917 0 0 0-.73-.283zm26.081 10.696a.85.85 0 0 0-.816.7 60.128 60.128 0 0 1-3.592 11.816.864.864 0 0 0 .427 1.168c.21.092.447.092.663 0a.855.855 0 0 0 .458-.484 62.317 62.317 0 0 0 3.698-12.16.878.878 0 0 0-.174-.728.822.822 0 0 0-.664-.312zm-10.74 2.292a.869.869 0 0 0-.814.61 62.066 62.066 0 0 1-5.062 11.915.785.785 0 0 0-.06.636.828.828 0 0 0 .426.495.892.892 0 0 0 .666.058.85.85 0 0 0 .519-.407 63.764 63.764 0 0 0 5.187-12.227.813.813 0 0 0-.142-.751.893.893 0 0 0-.72-.329zM25.78 56.54a.88.88 0 0 0-.728.554 54.806 54.806 0 0 1-4.252 7.91.96.96 0 0 0-.16.705.923.923 0 0 0 .375.606c.193.138.441.19.673.138a.873.873 0 0 0 .568-.41 56.101 56.101 0 0 0 4.4-8.187.961.961 0 0 0-.05-.883.878.878 0 0 0-.733-.433h-.093z" fill="#FAB451" fill-rule="evenodd"/>
</svg>
