<svg width="134" height="30" viewBox="0 0 134 30" xmlns="http://www.w3.org/2000/svg" xmlns:xlink="http://www.w3.org/1999/xlink">
    <title>
        Page 1
    </title>
    <defs>
        <path id="a" d="M0 29.395h133.76V0H0z"/>
    </defs>
    <g fill="none" fill-rule="evenodd">
        <path d="M25.842 16.474c0 7.136-5.785 12.92-12.921 12.92C5.785 29.395 0 23.61 0 16.475s5.785-12.92 12.92-12.92c7.137 0 12.922 5.784 12.922 12.92z" fill="#FCDE54"/>
        <path d="M30.146 15.95c0-7.36-5.966-13.326-13.326-13.326S3.494 8.59 3.494 15.949c0 7.36 5.966 13.326 13.326 13.326S30.146 23.31 30.146 15.95" fill="#27E29F"/>
        <path d="M32.016 14.064c0-5.782-4.686-10.468-10.468-10.468-5.781 0-10.468 4.686-10.468 10.468 0 5.781 4.687 10.468 10.468 10.468 5.782 0 10.468-4.687 10.468-10.468" fill="#FAB451"/>
        <path d="M22.062 8.869a8.869 8.869 0 1 0-17.737 0 8.869 8.869 0 0 0 17.737 0" fill="#FA828A"/>
        <path d="M21.694 2.593l-4.292 10.754 4.969-1.251a1.644 1.644 0 1 1 .802 3.187l-8.056 2.029a1.643 1.643 0 0 1-1.978-1.132 1.637 1.637 0 0 1 .038-1.114L18.55 1.603a13.601 13.601 0 0 0-2.464-.225C8.62 1.378 2.565 7.432 2.565 14.9c0 7.467 6.054 13.521 13.521 13.521 7.468 0 13.522-6.054 13.522-13.521 0-5.468-3.245-10.176-7.914-12.307" fill="#5FA9F9"/>
        <path d="M13.14 16.18a1.643 1.643 0 0 0 1.977 1.132l8.056-2.029a1.644 1.644 0 0 0-.802-3.187l-4.969 1.25 4.292-10.753a13.419 13.419 0 0 0-3.144-.99l-5.373 13.463c-.148.37-.151.763-.038 1.114" fill="#FFF"/>
        <path d="M38.118 15.637c0-.725.118-1.409.353-2.05a4.894 4.894 0 0 1 1.02-1.68 4.861 4.861 0 0 1 1.622-1.134c.636-.28 1.36-.42 2.175-.42.534 0 1.023.048 1.469.143.445.095.877.232 1.297.41l-.592 2.27a7.178 7.178 0 0 0-.877-.267 4.58 4.58 0 0 0-1.068-.114c-.84 0-1.466.26-1.88.782-.413.521-.62 1.208-.62 2.06 0 .903.195 1.602.583 2.098.387.496 1.065.744 2.031.744.344 0 .712-.032 1.107-.095a4.696 4.696 0 0 0 1.087-.306l.4 2.328a6.67 6.67 0 0 1-1.24.362 8.195 8.195 0 0 1-1.64.153c-.916 0-1.704-.137-2.365-.41-.662-.274-1.205-.646-1.631-1.116a4.348 4.348 0 0 1-.935-1.67 7.083 7.083 0 0 1-.296-2.088" fill="#FFF"/>
        <path d="M51.757 20.844c-.827-.012-1.497-.102-2.012-.267-.515-.165-.922-.397-1.22-.696a2.304 2.304 0 0 1-.611-1.087 5.861 5.861 0 0 1-.163-1.44V8.077l2.843-.458v9.162c0 .255.019.484.057.687.038.204.111.375.22.515.107.14.263.254.467.343.203.09.477.147.82.172l-.4 2.346z" fill="#FFF"/>
        <path d="M59.883 15.618c0-.878-.175-1.567-.524-2.07-.35-.502-.85-.753-1.498-.753s-1.151.251-1.507.753c-.356.503-.534 1.192-.534 2.07 0 .877.178 1.573.534 2.089.356.514.859.772 1.507.772.649 0 1.148-.258 1.498-.772.35-.516.524-1.212.524-2.09m2.9 0c0 .79-.115 1.511-.344 2.166a4.702 4.702 0 0 1-.992 1.678 4.46 4.46 0 0 1-1.554 1.078c-.605.254-1.282.382-2.032.382-.738 0-1.408-.128-2.012-.382a4.455 4.455 0 0 1-1.555-1.078 4.922 4.922 0 0 1-1.01-1.678 6.207 6.207 0 0 1-.363-2.165c0-.789.124-1.507.372-2.156a4.889 4.889 0 0 1 1.03-1.66c.438-.457.96-.813 1.564-1.067a5.032 5.032 0 0 1 1.974-.382c.725 0 1.39.127 1.993.382a4.53 4.53 0 0 1 1.555 1.068c.432.457.77 1.01 1.011 1.66.242.648.363 1.366.363 2.155" fill="#FFF"/>
        <path d="M73.16 20.31c-.484.14-1.107.27-1.87.391-.763.121-1.564.181-2.403.181-.852 0-1.562-.114-2.127-.343-.566-.229-1.015-.55-1.345-.963a3.755 3.755 0 0 1-.706-1.478 7.943 7.943 0 0 1-.21-1.889v-5.59h2.842v5.247c0 .915.121 1.577.363 1.983.241.408.693.611 1.354.611a10.227 10.227 0 0 0 1.259-.096V10.62h2.842v9.69z" fill="#FFF"/>
        <path d="M77.87 15.56c0 .878.198 1.584.592 2.118.394.534.98.8 1.755.8.254 0 .49-.009.706-.028a6.1 6.1 0 0 0 .534-.066v-5.17a2.471 2.471 0 0 0-.696-.286 3.35 3.35 0 0 0-.868-.114c-1.348 0-2.022.915-2.022 2.746zm6.429 4.77c-.255.075-.547.149-.877.219-.331.07-.678.13-1.04.181-.362.05-.731.092-1.106.124-.376.032-.735.048-1.078.048-.827 0-1.564-.121-2.213-.363a4.44 4.44 0 0 1-1.64-1.04 4.504 4.504 0 0 1-1.02-1.64c-.236-.642-.354-1.364-.354-2.165 0-.814.102-1.548.306-2.203.203-.655.495-1.211.877-1.67a3.755 3.755 0 0 1 1.402-1.048c.553-.242 1.186-.363 1.898-.363.394 0 .747.038 1.059.115.311.076.626.184.944.324V8.077l2.842-.458v12.71z" fill="#FFF"/>
        <path d="M86.493 8.121l2.842-.458v2.957h3.414v2.365h-3.414v3.53c0 .597.105 1.074.314 1.43.21.356.633.534 1.269.534.305 0 .62-.029.944-.086.325-.057.62-.136.887-.238l.4 2.212a8.02 8.02 0 0 1-1.144.363c-.42.101-.934.152-1.545.152-.776 0-1.418-.104-1.926-.314-.51-.21-.916-.503-1.221-.878a3.264 3.264 0 0 1-.64-1.364 8.038 8.038 0 0 1-.18-1.773V8.12z" fill="#FFF"/>
        <path d="M97.785 7.72c0 .522-.169.932-.506 1.23a1.738 1.738 0 0 1-1.192.45c-.458 0-.855-.15-1.192-.45-.337-.298-.506-.708-.506-1.23 0-.52.169-.93.506-1.23a1.74 1.74 0 0 1 1.192-.448c.458 0 .855.15 1.192.448.337.3.506.71.506 1.23" fill="#FFF"/>
        <mask id="b" fill="#fff">
            <use xlink:href="#a"/>
        </mask>
        <path fill="#FFF" mask="url(#b)" d="M94.675 20.654h2.843V10.62h-2.843z"/>
        <path d="M105.32 15.331c0-.915-.118-1.564-.354-1.945-.235-.382-.639-.572-1.21-.572-.179 0-.363.01-.554.028-.19.02-.375.042-.553.067v7.745h-2.842v-9.69a19.825 19.825 0 0 1 1.878-.392c.363-.057.735-.101 1.116-.133.382-.032.757-.048 1.126-.048.725 0 1.313.092 1.764.277.451.184.823.404 1.116.658a4.887 4.887 0 0 1 1.402-.687 4.916 4.916 0 0 1 1.46-.248c.8 0 1.459.112 1.974.334.515.223.925.537 1.23.944.305.407.515.89.63 1.45.114.56.171 1.182.171 1.87v5.665h-2.842V15.33c0-.915-.118-1.564-.353-1.945-.236-.382-.639-.572-1.211-.572-.153 0-.366.038-.64.114-.273.076-.498.172-.676.286.088.293.146.601.171.926.026.324.038.67.038 1.039v5.475h-2.842V15.33z" fill="#FFF" mask="url(#b)"/>
        <path d="M122.067 14.626a2.94 2.94 0 0 0-.124-.706 1.771 1.771 0 0 0-.324-.61 1.732 1.732 0 0 0-.553-.44c-.223-.114-.5-.17-.83-.17-.318 0-.591.054-.82.161-.23.108-.42.252-.572.43-.153.178-.27.384-.353.62a4.055 4.055 0 0 0-.181.715h3.757zm-6.676 1.087c0-.89.136-1.669.41-2.337.273-.667.633-1.223 1.078-1.669a4.48 4.48 0 0 1 1.535-1.01 4.81 4.81 0 0 1 1.784-.344c1.424 0 2.55.436 3.376 1.306.827.872 1.24 2.153 1.24 3.844 0 .166-.006.347-.019.544-.013.197-.025.372-.038.524h-6.447c.063.586.336 1.05.82 1.393.483.343 1.131.515 1.945.515.522 0 1.034-.048 1.536-.143.502-.095.912-.213 1.23-.353l.382 2.308a3.948 3.948 0 0 1-.61.23 8 8 0 0 1-.85.2c-.311.057-.645.104-1.001.142-.356.039-.712.058-1.068.058-.903 0-1.688-.134-2.356-.4-.668-.268-1.22-.633-1.66-1.098a4.35 4.35 0 0 1-.972-1.65 6.535 6.535 0 0 1-.315-2.06z" fill="#FFF" mask="url(#b)"/>
        <path d="M129.507 18.613c.521 0 .89-.051 1.106-.153.216-.102.324-.299.324-.591 0-.23-.14-.43-.42-.601-.28-.172-.705-.366-1.277-.582a12.966 12.966 0 0 1-1.212-.515 3.56 3.56 0 0 1-.925-.64 2.582 2.582 0 0 1-.591-.886c-.14-.343-.21-.757-.21-1.24 0-.94.35-1.685 1.049-2.232.7-.546 1.66-.82 2.88-.82.611 0 1.196.054 1.755.162.56.108 1.005.226 1.336.353l-.496 2.213c-.331-.115-.69-.216-1.078-.306a5.873 5.873 0 0 0-1.307-.133c-.89 0-1.335.248-1.335.744 0 .114.019.216.057.305a.65.65 0 0 0 .23.257c.114.084.27.173.467.269.196.096.448.202.753.317.623.23 1.138.459 1.545.683.407.224.728.466.963.726.236.26.401.55.496.867.096.317.143.685.143 1.103 0 .99-.372 1.739-1.115 2.246-.744.508-1.797.762-3.158.762-.89 0-1.63-.077-2.222-.23-.591-.152-1.001-.279-1.23-.38l.477-2.309c.483.19.979.34 1.488.448a7.232 7.232 0 0 0 1.507.163" fill="#FFF" mask="url(#b)"/>
    </g>
</svg>
