<svg width="71" height="57" viewBox="0 0 71 57" xmlns="http://www.w3.org/2000/svg">
    <title>
        Group
    </title>
    <g fill="#FA828A" fill-rule="evenodd">
        <path d="M8.195 0C2.863-.013.143 5.437 0 10.082v38.867c0 2.409.268 4.417 1.539 5.914C2.809 56.359 4.889 57 7.8 57h55.11c2.513 0 4.585-.632 6.011-2.03 1.427-1.399 2.076-3.443 2.076-5.879.004-9.195 0-18.377 0-27.574 0-2.404-.644-4.457-2.04-5.842-.698-.695-1.552-1.207-2.54-1.532-.023-5.3-.282-8.635-1.074-10.83C64.436.984 62.86.209 60.656 0H8.195zm.082 2.282h52.757c1.512-.049 2.033.823 2.555 1.78.234.641.392 1.616.54 2.778H3.059c-.145-2.292 3.103-4.513 5.218-4.558zM2.29 9.12h61.695c.085 1.29.13 2.806.143 4.56-18.647-.075-37.488-.035-56.207-.035-2.695-.442-5.636-1.883-5.632-4.525zm0 4.56c1.56 1.26 3.887 2.25 5.725 2.28h55.075c2.04 0 3.395.495 4.259 1.354.863.86 1.36 2.191 1.36 4.204V28.5h-6.764c-2.532 0-4.585.615-6.012 1.853-1.427 1.238-2.111 3.063-2.111 5.058 0 1.933.702 3.7 2.111 4.917 1.41 1.215 3.422 1.852 5.905 1.852h6.87v6.911c0 2.053-.514 3.376-1.395 4.24-.881.864-2.264 1.389-4.402 1.389H7.802c-2.6 0-3.83-.517-4.51-1.318-.68-.802-1.001-2.231-1.001-4.453V13.68zM62.504 30.4h6.968v9.12h-7.08c-2.165 0-3.626-.521-4.534-1.283-.908-.761-1.364-1.79-1.364-3.206 0-1.496.447-2.574 1.364-3.348.917-.775 2.424-1.283 4.645-1.283zm-1.43 2.28a2.284 2.284 0 0 0-2.29 2.28c0 1.26 1.024 2.28 2.29 2.28s2.29-1.02 2.29-2.28c0-1.26-1.024-2.28-2.29-2.28z"/>
        <text font-family="HelveticaNeue, Helvetica Neue" font-size="30" letter-spacing="-.018">
            <tspan x="23" y="43">:)</tspan>
        </text>
    </g>
</svg>
