<svg width="64" height="65" viewBox="0 0 64 65" xmlns="http://www.w3.org/2000/svg">
    <title>
        Page 1
    </title>
    <path d="M64 63.306c-7.695-4.869-15.982-7.529-25.306-8.12v-4.211a16.167 16.167 0 0 0 5.253-3.864h6.265c3.614 0 6.555-2.918 6.555-6.507V24.772C56.767 11.112 45.657 0 32 0S7.233 11.112 7.233 24.772v15.832c0 3.586 2.941 6.507 6.555 6.507h6.268a16.128 16.128 0 0 0 5.25 3.864v4.21c-9.324.593-17.61 3.253-25.306 8.12L1.075 65c7.08-4.48 14.394-6.946 22.83-7.693 2.277 1.18 5.19 1.833 8.262 1.833 3.036 0 5.957-.643 8.226-1.807 8.31.776 15.532 3.24 22.532 7.664L64 63.306zM13.595 45C11.061 45 9 42.984 9 40.508V24.714C9 12.187 19.319 2 32 2s23 10.187 23 22.714v15.794C55 42.984 52.939 45 50.405 45h-4.78a15.772 15.772 0 0 0 2.283-5.487c.158-.589.264-1.214.32-1.872.116.01.227.026.346.026 2.425 0 4.397-1.943 4.397-4.334v-4c0-2.39-1.972-4.333-4.397-4.333-.117 0-.225.015-.339.023v-.995c.254-.023.51-.044.759-.086a1 1 0 0 0 .832-1.15 1.016 1.016 0 0 0-1.168-.824c-5.676.935-13.751-3.703-14.647-8.406a1.01 1.01 0 0 0-.94-.815c-.476-.02-.891.266-1.028.706-2.048 6.573-11.757 9.735-17.996 9.877a1.007 1.007 0 0 0-.99 1.024c.012.544.464.976 1.014.976h.024a23.927 23.927 0 0 0 1.667-.106l.003 11.091c0 3.2.962 6.18 2.61 8.685h-4.78zm34.42-9.035c-.006-.106-.006-.206-.015-.311v-8.619c.123-.016.246-.035.375-.035C49.822 27 51 28.087 51 29.423v4.154C51 34.913 49.822 36 48.375 36c-.123 0-.24-.019-.36-.035zM18 35.98V24.613c5.563-.96 12.06-3.77 14.925-8.613 2.258 4.034 7.893 7.359 13.075 7.703v12.278c0 .928-.096 1.83-.268 2.71-.748 2.75-2.87 4.448-6.48 5.24A2.658 2.658 0 0 0 37 42.678l-3.333-.002A2.672 2.672 0 0 0 31 45.345c0 1.471 1.195 2.67 2.667 2.67H37a2.67 2.67 0 0 0 2.607-2.114c1.208-.261 2.289-.618 3.24-1.072C40.278 47.982 36.372 50 32 50c-7.719 0-14-6.287-14-14.02zm20 9.52c0 .275-.32.5-.714.5h-3.572c-.393 0-.714-.225-.714-.5s.318-.5.714-.5h3.572c.393 0 .714.225.714.5zM27 56.398V52a15.944 15.944 0 0 0 9 .002v4.485c-1.349.332-2.82.513-4.34.513a18.326 18.326 0 0 1-4.66-.602z" fill="#ACDE34" fill-rule="evenodd"/>
</svg>
